<svg width="146" height="34" viewBox="0 0 146 34" fill="none" xmlns="http://www.w3.org/2000/svg">
<path d="M17.832 2.332V24.992C17.832 27.5147 17.0547 29.5387 15.5 31.064C13.9453 32.56 11.892 33.308 9.34 33.308C6.75867 33.308 4.69067 32.5453 3.136 31.02C1.58133 29.4653 0.804 27.3533 0.804 24.684H4.808C4.83733 26.18 5.21867 27.3973 5.952 28.336C6.71467 29.2747 7.844 29.744 9.34 29.744C10.836 29.744 11.9507 29.304 12.684 28.424C13.4173 27.5147 13.784 26.3707 13.784 24.992V2.332H17.832ZM24.224 20.856C24.224 18.392 24.7227 16.236 25.72 14.388C26.7174 12.5107 28.0814 11.0587 29.812 10.032C31.572 9.00533 33.5227 8.492 35.664 8.492C37.776 8.492 39.6094 8.94667 41.164 9.856C42.7187 10.7653 43.8774 11.9093 44.64 13.288V8.888H48.688V33H44.64V28.512C43.848 29.92 42.66 31.0933 41.076 32.032C39.5214 32.9413 37.7027 33.396 35.62 33.396C33.4787 33.396 31.5427 32.868 29.812 31.812C28.0814 30.756 26.7174 29.2747 25.72 27.368C24.7227 25.4613 24.224 23.2907 24.224 20.856ZM44.64 20.9C44.64 19.0813 44.2734 17.4973 43.54 16.148C42.8067 14.7987 41.8094 13.772 40.548 13.068C39.316 12.3347 37.952 11.968 36.456 11.968C34.96 11.968 33.596 12.32 32.364 13.024C31.132 13.728 30.1494 14.7547 29.416 16.104C28.6827 17.4533 28.316 19.0373 28.316 20.856C28.316 22.704 28.6827 24.3173 29.416 25.696C30.1494 27.0453 31.132 28.0867 32.364 28.82C33.596 29.524 34.96 29.876 36.456 29.876C37.952 29.876 39.316 29.524 40.548 28.82C41.8094 28.0867 42.8067 27.0453 43.54 25.696C44.2734 24.3173 44.64 22.7187 44.64 20.9ZM53.9584 20.856C53.9584 18.392 54.4571 16.236 55.4544 14.388C56.4517 12.5107 57.8157 11.0587 59.5464 10.032C61.3064 9.00533 63.2717 8.492 65.4424 8.492C67.3197 8.492 69.0651 8.932 70.6784 9.812C72.2917 10.6627 73.5237 11.792 74.3744 13.2V0.44H78.4224V33H74.3744V28.468C73.5824 29.9053 72.4091 31.0933 70.8544 32.032C69.2997 32.9413 67.4811 33.396 65.3984 33.396C63.2571 33.396 61.3064 32.868 59.5464 31.812C57.8157 30.756 56.4517 29.2747 55.4544 27.368C54.4571 25.4613 53.9584 23.2907 53.9584 20.856ZM74.3744 20.9C74.3744 19.0813 74.0077 17.4973 73.2744 16.148C72.5411 14.7987 71.5437 13.772 70.2824 13.068C69.0504 12.3347 67.6864 11.968 66.1904 11.968C64.6944 11.968 63.3304 12.32 62.0984 13.024C60.8664 13.728 59.8837 14.7547 59.1504 16.104C58.4171 17.4533 58.0504 19.0373 58.0504 20.856C58.0504 22.704 58.4171 24.3173 59.1504 25.696C59.8837 27.0453 60.8664 28.0867 62.0984 28.82C63.3304 29.524 64.6944 29.876 66.1904 29.876C67.6864 29.876 69.0504 29.524 70.2824 28.82C71.5437 28.0867 72.5411 27.0453 73.2744 25.696C74.0077 24.3173 74.3744 22.7187 74.3744 20.9ZM95.7048 33.396C93.4461 33.396 91.3928 32.8827 89.5448 31.856C87.7261 30.8293 86.2888 29.3773 85.2328 27.5C84.2061 25.5933 83.6928 23.3933 83.6928 20.9C83.6928 18.436 84.2208 16.2653 85.2768 14.388C86.3621 12.4813 87.8288 11.0293 89.6768 10.032C91.5248 9.00533 93.5928 8.492 95.8808 8.492C98.1688 8.492 100.237 9.00533 102.085 10.032C103.933 11.0293 105.385 12.4667 106.441 14.344C107.526 16.2213 108.069 18.4067 108.069 20.9C108.069 23.3933 107.511 25.5933 106.397 27.5C105.311 29.3773 103.83 30.8293 101.953 31.856C100.075 32.8827 97.9928 33.396 95.7048 33.396ZM95.7048 29.876C97.1421 29.876 98.4914 29.5387 99.7528 28.864C101.014 28.1893 102.026 27.1773 102.789 25.828C103.581 24.4787 103.977 22.836 103.977 20.9C103.977 18.964 103.595 17.3213 102.833 15.972C102.07 14.6227 101.073 13.6253 99.8408 12.98C98.6088 12.3053 97.2741 11.968 95.8368 11.968C94.3701 11.968 93.0208 12.3053 91.7888 12.98C90.5861 13.6253 89.6181 14.6227 88.8848 15.972C88.1514 17.3213 87.7848 18.964 87.7848 20.9C87.7848 22.8653 88.1368 24.5227 88.8408 25.872C89.5741 27.2213 90.5421 28.2333 91.7448 28.908C92.9474 29.5533 94.2674 29.876 95.7048 29.876ZM123.849 33.396C121.591 33.396 119.537 32.8827 117.689 31.856C115.871 30.8293 114.433 29.3773 113.377 27.5C112.351 25.5933 111.837 23.3933 111.837 20.9C111.837 18.436 112.365 16.2653 113.421 14.388C114.507 12.4813 115.973 11.0293 117.821 10.032C119.669 9.00533 121.737 8.492 124.025 8.492C126.313 8.492 128.381 9.00533 130.229 10.032C132.077 11.0293 133.529 12.4667 134.585 14.344C135.671 16.2213 136.213 18.4067 136.213 20.9C136.213 23.3933 135.656 25.5933 134.541 27.5C133.456 29.3773 131.975 30.8293 130.097 31.856C128.22 32.8827 126.137 33.396 123.849 33.396ZM123.849 29.876C125.287 29.876 126.636 29.5387 127.897 28.864C129.159 28.1893 130.171 27.1773 130.933 25.828C131.725 24.4787 132.121 22.836 132.121 20.9C132.121 18.964 131.74 17.3213 130.977 15.972C130.215 14.6227 129.217 13.6253 127.985 12.98C126.753 12.3053 125.419 11.968 123.981 11.968C122.515 11.968 121.165 12.3053 119.933 12.98C118.731 13.6253 117.763 14.6227 117.029 15.972C116.296 17.3213 115.929 18.964 115.929 20.9C115.929 22.8653 116.281 24.5227 116.985 25.872C117.719 27.2213 118.687 28.2333 119.889 28.908C121.092 29.5533 122.412 29.876 123.849 29.876ZM142.754 33.264C141.991 33.264 141.346 33 140.818 32.472C140.29 31.944 140.026 31.2987 140.026 30.536C140.026 29.7733 140.29 29.128 140.818 28.6C141.346 28.072 141.991 27.808 142.754 27.808C143.487 27.808 144.103 28.072 144.602 28.6C145.13 29.128 145.394 29.7733 145.394 30.536C145.394 31.2987 145.13 31.944 144.602 32.472C144.103 33 143.487 33.264 142.754 33.264Z" fill="#181E4B"/>
</svg>
